<svg width="20" height="20" viewBox="0 0 20 20" fill="none" xmlns="http://www.w3.org/2000/svg">
<path d="M1.24989 18.1249C1.16169 18.1255 1.07438 18.1073 0.993696 18.0717C0.91301 18.0361 0.840777 17.9838 0.781743 17.9183C0.72271 17.8528 0.678213 17.7755 0.651179 17.6915C0.624144 17.6076 0.615185 17.5189 0.624888 17.4312L1.10614 13.0562C1.12327 12.9164 1.18714 12.7864 1.28739 12.6874L11.5124 2.46244C11.6982 2.2763 11.9188 2.12863 12.1617 2.02787C12.4046 1.92711 12.665 1.87524 12.928 1.87524C13.191 1.87524 13.4514 1.92711 13.6943 2.02787C13.9372 2.12863 14.1579 2.2763 14.3436 2.46244L16.2874 4.40619C16.4735 4.59196 16.6212 4.81262 16.722 5.05553C16.8227 5.29844 16.8746 5.55884 16.8746 5.82182C16.8746 6.0848 16.8227 6.3452 16.722 6.58811C16.6212 6.83102 16.4735 7.05167 16.2874 7.23744L6.06864 17.4562C5.96966 17.5564 5.83972 17.6203 5.69989 17.6374L1.32489 18.1187L1.24989 18.1249ZM2.33114 13.4062L1.95614 16.7937L5.34364 16.4187L15.4061 6.35619C15.4761 6.28652 15.5315 6.20372 15.5694 6.11256C15.6072 6.02139 15.6267 5.92365 15.6267 5.82494C15.6267 5.72623 15.6072 5.62849 15.5694 5.53733C15.5315 5.44617 15.4761 5.36337 15.4061 5.29369L13.4561 3.34369C13.3865 3.27377 13.3037 3.2183 13.2125 3.18044C13.1213 3.14259 13.0236 3.1231 12.9249 3.1231C12.8262 3.1231 12.7284 3.14259 12.6373 3.18044C12.5461 3.2183 12.4633 3.27377 12.3936 3.34369L2.33114 13.4062Z" fill="#0884FF"/>
<path d="M14.3748 8.88117C14.2925 8.88165 14.211 8.86588 14.1348 8.83478C14.0587 8.80367 13.9894 8.75785 13.931 8.69992L10.0498 4.80617C9.9915 4.7479 9.94527 4.67872 9.91374 4.60258C9.8822 4.52644 9.86597 4.44483 9.86597 4.36242C9.86597 4.28001 9.8822 4.1984 9.91374 4.12226C9.94527 4.04613 9.9915 3.97694 10.0498 3.91867C10.108 3.8604 10.1772 3.81417 10.2534 3.78263C10.3295 3.7511 10.4111 3.73486 10.4935 3.73486C10.5759 3.73486 10.6575 3.7511 10.7337 3.78263C10.8098 3.81417 10.879 3.8604 10.9373 3.91867L14.831 7.81242C14.8896 7.87052 14.9361 7.93965 14.9678 8.01581C14.9996 8.09197 15.0159 8.17366 15.0159 8.25617C15.0159 8.33868 14.9996 8.42037 14.9678 8.49653C14.9361 8.57269 14.8896 8.64182 14.831 8.69992C14.7711 8.75936 14.6999 8.80607 14.6214 8.83722C14.543 8.86837 14.4591 8.88332 14.3748 8.88117Z" fill="#0884FF"/>
<path d="M10.053 7.81464L5.18726 12.6804L6.07114 13.5643L10.9369 8.69852L10.053 7.81464Z" fill="#0884FF"/>
</svg>
