<svg width="120" height="60" viewBox="0 0 150 80" fill="none" xmlns="http://www.w3.org/2000/svg">
<g filter="url(#filter0_d_26_73)">
<rect x="19" y="19" width="137" height="40" rx="10" fill="white"/>
</g>
<path opacity="0.8" d="M69.53 45V32.544H76.982V33.768H70.916V38.628H76.046V39.852H70.916V45H69.53ZM78.7706 45V36H80.1206V45H78.7706ZM78.7706 33.966V32.4H80.1206V33.966H78.7706ZM82.8161 45V32.076H84.1661V45H82.8161ZM91.5361 37.17H88.6741V41.472C88.6741 42.504 88.7461 43.182 88.8901 43.506C89.0461 43.83 89.4061 43.992 89.9701 43.992L91.5721 43.884L91.6621 45C90.8581 45.132 90.2461 45.198 89.8261 45.198C88.8901 45.198 88.2421 44.97 87.8821 44.514C87.5221 44.058 87.3421 43.188 87.3421 41.904V37.17H86.0641V36H87.3421V33.246H88.6741V36H91.5361V37.17ZM99.3047 43.884L99.8267 43.83L99.8627 44.892C98.4947 45.084 97.3247 45.18 96.3527 45.18C95.0567 45.18 94.1387 44.808 93.5987 44.064C93.0587 43.308 92.7887 42.138 92.7887 40.554C92.7887 37.398 94.0427 35.82 96.5507 35.82C97.7627 35.82 98.6687 36.162 99.2687 36.846C99.8687 37.518 100.169 38.58 100.169 40.032L100.097 41.058H94.1567C94.1567 42.054 94.3367 42.792 94.6967 43.272C95.0567 43.752 95.6807 43.992 96.5687 43.992C97.4687 43.992 98.3807 43.956 99.3047 43.884ZM98.8187 39.978C98.8187 38.874 98.6387 38.094 98.2787 37.638C97.9307 37.182 97.3547 36.954 96.5507 36.954C95.7587 36.954 95.1587 37.194 94.7507 37.674C94.3547 38.154 94.1507 38.922 94.1387 39.978H98.8187ZM102.273 45V36H103.605V37.224C104.649 36.504 105.747 36.03 106.899 35.802V37.17C106.395 37.266 105.867 37.416 105.315 37.62C104.775 37.824 104.361 38.004 104.073 38.16L103.623 38.394V45H102.273ZM111.321 37.026C110.013 37.026 109.359 37.482 109.359 38.394C109.359 38.814 109.509 39.114 109.809 39.294C110.109 39.462 110.793 39.642 111.861 39.834C112.929 40.014 113.685 40.272 114.129 40.608C114.573 40.944 114.795 41.574 114.795 42.498C114.795 43.422 114.495 44.1 113.895 44.532C113.307 44.964 112.443 45.18 111.303 45.18C110.559 45.18 109.683 45.096 108.675 44.928L108.135 44.838L108.207 43.668C109.575 43.872 110.607 43.974 111.303 43.974C111.999 43.974 112.527 43.866 112.887 43.65C113.259 43.422 113.445 43.05 113.445 42.534C113.445 42.006 113.289 41.652 112.977 41.472C112.665 41.28 111.981 41.1 110.925 40.932C109.869 40.764 109.119 40.518 108.675 40.194C108.231 39.87 108.009 39.27 108.009 38.394C108.009 37.518 108.315 36.87 108.927 36.45C109.551 36.03 110.325 35.82 111.249 35.82C111.981 35.82 112.899 35.904 114.003 36.072L114.507 36.162L114.471 37.314C113.139 37.122 112.089 37.026 111.321 37.026Z" fill="black"/>
<path d="M145 36.332L143.59 35L139 39.3266L134.41 35L133 36.332L139 42L145 36.332Z" fill="black"/>
<path d="M124 29V49" stroke="#7D7D7D" stroke-width="2"/>
<path d="M42 44H46V42H42V44ZM35 32V34H53V32H35ZM38 39H50V37H38V39Z" fill="black"/>
<defs>
<filter id="filter0_d_26_73" x="0" y="0" width="177" height="80" filterUnits="userSpaceOnUse" color-interpolation-filters="sRGB">
<feFlood flood-opacity="0" result="BackgroundImageFix"/>
<feColorMatrix in="SourceAlpha" type="matrix" values="0 0 0 0 0 0 0 0 0 0 0 0 0 0 0 0 0 0 127 0" result="hardAlpha"/>
<feOffset dx="1" dy="1"/>
<feGaussianBlur stdDeviation="10"/>
<feComposite in2="hardAlpha" operator="out"/>
<feColorMatrix type="matrix" values="0 0 0 0 0 0 0 0 0 0 0 0 0 0 0 0 0 0 0.1 0"/>
<feBlend mode="normal" in2="BackgroundImageFix" result="effect1_dropShadow_26_73"/>
<feBlend mode="normal" in="SourceGraphic" in2="effect1_dropShadow_26_73" result="shape"/>
</filter>
</defs>
</svg>
