<svg width="1728" height="1117" viewBox="0 0 1728 1117" fill="none" xmlns="http://www.w3.org/2000/svg">
<circle cx="105" cy="106" r="150" fill="#B2DFFF"/>
<circle cx="1653" cy="989" r="150" transform="rotate(100.531 1653 989)" fill="#B2DFFF"/>
<g opacity="0.26" filter="url(#filter0_d_0_1)">
<rect x="164" y="158" width="1400" height="800" rx="20" fill="#CEF3FF"/>
</g>
<circle cx="1332.85" cy="204.846" r="6.84615" fill="#2DA5FC" fill-opacity="0.5"/>
<circle cx="1360.23" cy="204.846" r="6.84615" fill="#2DA5FC" fill-opacity="0.5"/>
<circle cx="1387.62" cy="204.846" r="6.84615" fill="#2DA5FC" fill-opacity="0.5"/>
<circle cx="1415" cy="204.846" r="6.84615" fill="#2DA5FC" fill-opacity="0.5"/>
<circle cx="1442.38" cy="204.846" r="6.84615" fill="#2DA5FC" fill-opacity="0.5"/>
<circle cx="1469.77" cy="204.846" r="6.84615" fill="#2DA5FC" fill-opacity="0.5"/>
<circle cx="1497.15" cy="204.846" r="6.84615" fill="#2DA5FC" fill-opacity="0.5"/>
<circle cx="1332.85" cy="232.231" r="6.84615" fill="#2DA5FC" fill-opacity="0.5"/>
<circle cx="1360.23" cy="232.231" r="6.84615" fill="#2DA5FC" fill-opacity="0.5"/>
<circle cx="1387.62" cy="232.231" r="6.84615" fill="#2DA5FC" fill-opacity="0.5"/>
<circle cx="1415" cy="232.231" r="6.84615" fill="#2DA5FC" fill-opacity="0.5"/>
<circle cx="1442.38" cy="232.231" r="6.84615" fill="#2DA5FC" fill-opacity="0.5"/>
<circle cx="1469.77" cy="232.231" r="6.84615" fill="#2DA5FC" fill-opacity="0.5"/>
<circle cx="1497.15" cy="232.231" r="6.84615" fill="#2DA5FC" fill-opacity="0.5"/>
<circle cx="1332.85" cy="259.615" r="6.84615" fill="#2DA5FC" fill-opacity="0.5"/>
<circle cx="1360.23" cy="259.615" r="6.84615" fill="#2DA5FC" fill-opacity="0.5"/>
<circle cx="1387.62" cy="259.615" r="6.84615" fill="#2DA5FC" fill-opacity="0.5"/>
<circle cx="1415" cy="259.615" r="6.84615" fill="#2DA5FC" fill-opacity="0.5"/>
<circle cx="1442.38" cy="259.615" r="6.84615" fill="#2DA5FC" fill-opacity="0.5"/>
<circle cx="1469.77" cy="259.615" r="6.84615" fill="#2DA5FC" fill-opacity="0.5"/>
<circle cx="1497.15" cy="259.615" r="6.84615" fill="#2DA5FC" fill-opacity="0.5"/>
<circle cx="1332.85" cy="287" r="6.84615" fill="#2DA5FC" fill-opacity="0.5"/>
<circle cx="1360.23" cy="287" r="6.84615" fill="#2DA5FC" fill-opacity="0.5"/>
<circle cx="1387.62" cy="287" r="6.84615" fill="#2DA5FC" fill-opacity="0.5"/>
<circle cx="1415" cy="287" r="6.84615" fill="#2DA5FC" fill-opacity="0.5"/>
<circle cx="1442.38" cy="287" r="6.84615" fill="#2DA5FC" fill-opacity="0.5"/>
<circle cx="1469.77" cy="287" r="6.84615" fill="#2DA5FC" fill-opacity="0.5"/>
<circle cx="1497.15" cy="287" r="6.84615" fill="#2DA5FC" fill-opacity="0.5"/>
<circle cx="1332.85" cy="314.385" r="6.84615" fill="#2DA5FC" fill-opacity="0.5"/>
<circle cx="1360.23" cy="314.385" r="6.84615" fill="#2DA5FC" fill-opacity="0.5"/>
<circle cx="1387.62" cy="314.385" r="6.84615" fill="#2DA5FC" fill-opacity="0.5"/>
<circle cx="1415" cy="314.385" r="6.84615" fill="#2DA5FC" fill-opacity="0.5"/>
<circle cx="1442.38" cy="314.385" r="6.84615" fill="#2DA5FC" fill-opacity="0.5"/>
<circle cx="1469.77" cy="314.385" r="6.84615" fill="#2DA5FC" fill-opacity="0.5"/>
<circle cx="1497.15" cy="314.385" r="6.84615" fill="#2DA5FC" fill-opacity="0.5"/>
<circle cx="1332.85" cy="341.769" r="6.84615" fill="#2DA5FC" fill-opacity="0.5"/>
<circle cx="1360.23" cy="341.769" r="6.84615" fill="#2DA5FC" fill-opacity="0.5"/>
<circle cx="1387.62" cy="341.769" r="6.84615" fill="#2DA5FC" fill-opacity="0.5"/>
<circle cx="1415" cy="341.769" r="6.84615" fill="#2DA5FC" fill-opacity="0.5"/>
<circle cx="1442.38" cy="341.769" r="6.84615" fill="#2DA5FC" fill-opacity="0.5"/>
<circle cx="1469.77" cy="341.769" r="6.84615" fill="#2DA5FC" fill-opacity="0.5"/>
<circle cx="1497.15" cy="341.769" r="6.84615" fill="#2DA5FC" fill-opacity="0.5"/>
<circle cx="210.846" cy="753.846" r="6.84615" fill="#2DA5FC" fill-opacity="0.5"/>
<circle cx="238.23" cy="753.846" r="6.84615" fill="#2DA5FC" fill-opacity="0.5"/>
<circle cx="265.616" cy="753.846" r="6.84615" fill="#2DA5FC" fill-opacity="0.5"/>
<circle cx="292.999" cy="753.846" r="6.84615" fill="#2DA5FC" fill-opacity="0.5"/>
<circle cx="320.385" cy="753.846" r="6.84615" fill="#2DA5FC" fill-opacity="0.5"/>
<circle cx="347.769" cy="753.846" r="6.84615" fill="#2DA5FC" fill-opacity="0.5"/>
<circle cx="375.154" cy="753.846" r="6.84615" fill="#2DA5FC" fill-opacity="0.5"/>
<circle cx="210.846" cy="781.231" r="6.84615" fill="#2DA5FC" fill-opacity="0.5"/>
<circle cx="238.23" cy="781.231" r="6.84615" fill="#2DA5FC" fill-opacity="0.5"/>
<circle cx="265.616" cy="781.231" r="6.84615" fill="#2DA5FC" fill-opacity="0.5"/>
<circle cx="292.999" cy="781.231" r="6.84615" fill="#2DA5FC" fill-opacity="0.5"/>
<circle cx="320.385" cy="781.231" r="6.84615" fill="#2DA5FC" fill-opacity="0.5"/>
<circle cx="347.769" cy="781.231" r="6.84615" fill="#2DA5FC" fill-opacity="0.5"/>
<circle cx="375.154" cy="781.231" r="6.84615" fill="#2DA5FC" fill-opacity="0.5"/>
<circle cx="210.846" cy="808.615" r="6.84615" fill="#2DA5FC" fill-opacity="0.5"/>
<circle cx="238.23" cy="808.615" r="6.84615" fill="#2DA5FC" fill-opacity="0.5"/>
<circle cx="265.616" cy="808.615" r="6.84615" fill="#2DA5FC" fill-opacity="0.5"/>
<circle cx="292.999" cy="808.615" r="6.84615" fill="#2DA5FC" fill-opacity="0.5"/>
<circle cx="320.385" cy="808.615" r="6.84615" fill="#2DA5FC" fill-opacity="0.5"/>
<circle cx="347.769" cy="808.615" r="6.84615" fill="#2DA5FC" fill-opacity="0.5"/>
<circle cx="375.154" cy="808.615" r="6.84615" fill="#2DA5FC" fill-opacity="0.5"/>
<circle cx="210.846" cy="836" r="6.84615" fill="#2DA5FC" fill-opacity="0.5"/>
<circle cx="238.23" cy="836" r="6.84615" fill="#2DA5FC" fill-opacity="0.5"/>
<circle cx="265.616" cy="836" r="6.84615" fill="#2DA5FC" fill-opacity="0.5"/>
<circle cx="292.999" cy="836" r="6.84615" fill="#2DA5FC" fill-opacity="0.5"/>
<circle cx="320.385" cy="836" r="6.84615" fill="#2DA5FC" fill-opacity="0.5"/>
<circle cx="347.769" cy="836" r="6.84615" fill="#2DA5FC" fill-opacity="0.5"/>
<circle cx="375.154" cy="836" r="6.84615" fill="#2DA5FC" fill-opacity="0.5"/>
<circle cx="210.846" cy="863.385" r="6.84615" fill="#2DA5FC" fill-opacity="0.5"/>
<circle cx="238.23" cy="863.385" r="6.84615" fill="#2DA5FC" fill-opacity="0.5"/>
<circle cx="265.616" cy="863.385" r="6.84615" fill="#2DA5FC" fill-opacity="0.5"/>
<circle cx="292.999" cy="863.385" r="6.84615" fill="#2DA5FC" fill-opacity="0.5"/>
<circle cx="320.385" cy="863.385" r="6.84615" fill="#2DA5FC" fill-opacity="0.5"/>
<circle cx="347.769" cy="863.385" r="6.84615" fill="#2DA5FC" fill-opacity="0.5"/>
<circle cx="375.154" cy="863.385" r="6.84615" fill="#2DA5FC" fill-opacity="0.5"/>
<circle cx="210.846" cy="890.769" r="6.84615" fill="#2DA5FC" fill-opacity="0.5"/>
<circle cx="238.23" cy="890.769" r="6.84615" fill="#2DA5FC" fill-opacity="0.5"/>
<circle cx="265.616" cy="890.769" r="6.84615" fill="#2DA5FC" fill-opacity="0.5"/>
<circle cx="292.999" cy="890.769" r="6.84615" fill="#2DA5FC" fill-opacity="0.5"/>
<circle cx="320.385" cy="890.769" r="6.84615" fill="#2DA5FC" fill-opacity="0.5"/>
<circle cx="347.769" cy="890.769" r="6.84615" fill="#2DA5FC" fill-opacity="0.5"/>
<circle cx="375.154" cy="890.769" r="6.84615" fill="#2DA5FC" fill-opacity="0.5"/>
<defs>
<filter id="filter0_d_0_1" x="142" y="140" width="1444" height="844" filterUnits="userSpaceOnUse" color-interpolation-filters="sRGB">
<feFlood flood-opacity="0" result="BackgroundImageFix"/>
<feColorMatrix in="SourceAlpha" type="matrix" values="0 0 0 0 0 0 0 0 0 0 0 0 0 0 0 0 0 0 127 0" result="hardAlpha"/>
<feOffset dy="4"/>
<feGaussianBlur stdDeviation="11"/>
<feComposite in2="hardAlpha" operator="out"/>
<feColorMatrix type="matrix" values="0 0 0 0 0.698039 0 0 0 0 0.87451 0 0 0 0 1 0 0 0 1 0"/>
<feBlend mode="normal" in2="BackgroundImageFix" result="effect1_dropShadow_0_1"/>
<feBlend mode="normal" in="SourceGraphic" in2="effect1_dropShadow_0_1" result="shape"/>
</filter>
</defs>
</svg>
